<svg aria-hidden="true" style="position: absolute; width: 0; height: 0; overflow: hidden;" version="1.1" xmlns="http://www.w3.org/2000/svg" xmlns:xlink="http://www.w3.org/1999/xlink">
<defs>
<symbol id="icon-Logo" viewBox="0 0 31 32">
<path fill="#ff9500" style="fill: var(--color1, #ff9500)" d="M4.655 0.291h22.109c2.571 0 4.655 2.084 4.655 4.655v22.109c0 2.571-2.084 4.655-4.655 4.655h-22.109c-2.571 0-4.655-2.084-4.655-4.655v-22.109c0-2.571 2.084-4.655 4.655-4.655z"></path>
<path fill="#fff" style="fill: var(--color2, #fff)" d="M6.497 25.697l6.303-6.303h6.303v-6.303l6.303 6.303-6.303 6.303h-12.606z"></path>
<path fill="#fff" style="fill: var(--color2, #fff)" d="M6.497 13.091l6.303 6.303v-6.303h6.303l6.303-6.303h-12.606l-6.303 6.303z"></path>
</symbol>
<symbol id="icon-arrow" viewBox="0 0 31 32">
<path d="M4.608 16c0-0.636 0.516-1.152 1.152-1.152v0h16.339l-6.387-6.081c-0.218-0.21-0.354-0.505-0.354-0.831 0-0.636 0.516-1.152 1.152-1.152 0.31 0 0.592 0.123 0.799 0.322l-0-0 8.448 8.064c0.218 0.21 0.354 0.505 0.354 0.831s-0.136 0.621-0.354 0.83l-0 0-8.448 8.064c-0.207 0.202-0.491 0.327-0.804 0.327-0.636 0-1.152-0.516-1.152-1.152 0-0.329 0.138-0.626 0.36-0.836l0.001-0 6.387-6.081h-16.34c-0.636 0-1.152-0.516-1.152-1.152v0z"></path>
</symbol>
<symbol id="icon-Abstract-Line" viewBox="0 0 30 32">
<path d="M10.083 29.862c-2.771-0.782-5.673-1.177-8.487-1.539-0.607-0.076-1.169 0.348-1.213 0.944-0.007 0.045-0.010 0.096-0.010 0.148 0 0.541 0.396 0.988 0.914 1.069l0.006 0.001c2.728 0.348 5.543 0.72 8.184 1.474 0.563 0.164 1.169-0.173 1.342-0.752 0.027-0.091 0.043-0.195 0.043-0.302 0-0.491-0.325-0.905-0.772-1.040l-0.008-0.002zM18.483 18.766c-4.461-4.58-9.483-8.571-13.857-13.274-0.39-0.439-1.083-0.463-1.516-0.053s-0.476 1.101-0.043 1.54c4.375 4.715 9.398 8.72 13.857 13.313 0.201 0.201 0.479 0.326 0.786 0.326 0.3 0 0.573-0.119 0.773-0.313l-0 0c0.389-0.421 0.432-1.112 0-1.54zM26.841 1.148l0.389 7.866c0 0.6 0.521 1.064 1.127 1.034s1.039-0.541 1.039-1.142l-0.389-7.877c-0.044-0.578-0.524-1.030-1.11-1.030-0.021 0-0.043 0.001-0.064 0.002l0.003-0c-0.563 0.033-1.039 0.547-0.996 1.147z"></path>
</symbol>
<symbol id="icon-light" viewBox="0 0 33 32">
<path d="M19.958 2.127c0.402 0.223 0.599 0.693 0.478 1.136l-2.657 9.737h9.691c0.552 0.001 0.998 0.449 0.998 1 0 0.264-0.102 0.503-0.268 0.682l0.001-0.001-13.998 15c-0.183 0.195-0.443 0.317-0.731 0.317-0.553 0-1-0.448-1-1 0-0.093 0.013-0.184 0.037-0.269l-0.002 0.007 2.656-9.737h-9.691c-0.552-0.001-0.999-0.448-0.999-1 0-0.264 0.102-0.503 0.268-0.682l-0.001 0.001 13.999-15c0.183-0.196 0.443-0.318 0.731-0.318 0.179 0 0.346 0.047 0.491 0.129l-0.005-0.003z"></path>
</symbol>
<symbol id="icon-zapier" viewBox="0 0 65 32">
<path fill="#4c4c4d" style="fill: var(--color3, #4c4c4d)" d="M0.606 23.597l6.569-10.223h-5.792c-0.045-0.274-0.070-0.589-0.070-0.91 0-0.023 0-0.045 0-0.068l-0 0.003c0-0.344 0.021-0.659 0.070-0.947h9.374l0.12 0.315-6.618 10.244h6.205c0.049 0.323 0.070 0.659 0.070 0.996 0 0.322-0.021 0.631-0.070 0.925h-9.739l-0.119-0.336zM19.564 15.708c0-0.96-0.245-1.619-0.729-1.997-0.484-0.372-1.192-0.561-2.118-0.561-0.568 0-1.1 0.042-1.591 0.133-0.499 0.091-0.975 0.203-1.451 0.351-0.309-0.533-0.463-1.178-0.463-1.921 0.553-0.176 1.158-0.316 1.823-0.414 0.576-0.091 1.241-0.145 1.918-0.147h0.002c1.621 0 2.855 0.371 3.703 1.108 0.841 0.736 1.27 1.92 1.27 3.541v7.811c-0.568 0.126-1.256 0.266-2.069 0.399-0.73 0.129-1.57 0.203-2.427 0.203-0.019 0-0.039-0-0.058-0h0.003c-0.792 0-1.515-0.070-2.152-0.216s-1.186-0.379-1.634-0.709c-0.442-0.32-0.794-0.737-1.029-1.222l-0.008-0.019c-0.246-0.504-0.365-1.114-0.365-1.823 0-0.694 0.141-1.311 0.428-1.836 0.284-0.531 0.674-0.971 1.145-1.303l0.012-0.008c0.48-0.346 1.042-0.613 1.648-0.771l0.035-0.008c0.596-0.165 1.28-0.26 1.986-0.26 0.004 0 0.008 0 0.012 0h-0.001c0.519 0 0.947 0.014 1.276 0.035s0.61 0.056 0.841 0.085v-0.449h-0.008zM19.564 18.072c-0.245-0.035-0.553-0.063-0.925-0.098s-0.687-0.049-0.947-0.049c-1.010 0-1.774 0.189-2.299 0.561s-0.792 0.939-0.792 1.704c0 0.484 0.091 0.87 0.266 1.143s0.4 0.485 0.666 0.631c0.266 0.148 0.561 0.239 0.89 0.267 0.323 0.035 0.631 0.049 0.925 0.049 0.372 0 0.758-0.021 1.158-0.063 0.396-0.037 0.756-0.101 1.105-0.193l-0.047 0.011v-3.961zM24.556 11.454c0.161-0.036 0.329-0.056 0.499-0.071 0.155-0.014 0.336-0.021 0.519-0.021s0.363 0.008 0.542 0.023l-0.023-0.002c0.175 0.014 0.35 0.042 0.512 0.070 0.013 0.036 0.035 0.134 0.063 0.301 0.021 0.169 0.049 0.351 0.070 0.548s0.049 0.378 0.071 0.561c0.021 0.183 0.035 0.295 0.035 0.344 0.181-0.285 0.373-0.532 0.585-0.761l-0.003 0.003c0.224-0.245 0.498-0.462 0.813-0.659 0.309-0.192 0.665-0.35 1.044-0.456l0.029-0.007c0.4-0.112 0.841-0.168 1.325-0.168 0.018-0 0.040-0 0.061-0 0.709 0 1.387 0.134 2.009 0.377l-0.038-0.013c0.624 0.245 1.158 0.616 1.606 1.129 0.449 0.511 0.792 1.163 1.045 1.948s0.378 1.718 0.378 2.791c0 2.146-0.582 3.821-1.738 5.027-1.164 1.207-2.805 1.816-4.929 1.816-0.358 0-0.722-0.021-1.094-0.071-0.368-0.044-0.699-0.113-1.018-0.207l0.043 0.011v5.721c-0.196 0.035-0.399 0.056-0.624 0.070-0.176 0.013-0.384 0.021-0.593 0.022h-0.002c-0.175 0-0.378-0.008-0.596-0.022-0.228-0.016-0.432-0.041-0.633-0.075l0.038 0.005v-18.237h0.007zM26.968 21.894c0.309 0.112 0.624 0.196 0.947 0.245s0.744 0.071 1.269 0.071c0.582 0 1.122-0.091 1.606-0.28 0.496-0.195 0.915-0.489 1.252-0.859l0.002-0.003c0.351-0.392 0.624-0.884 0.828-1.473 0.202-0.588 0.301-1.297 0.301-2.104 0-1.297-0.239-2.328-0.715-3.092s-1.262-1.143-2.349-1.143c-0.407 0-0.792 0.071-1.171 0.216-0.389 0.155-0.721 0.379-0.995 0.659l-0.001 0.001c-0.295 0.295-0.525 0.659-0.708 1.108s-0.266 0.975-0.266 1.592v5.063zM38.698 13.346h-1.585c-0.033-0.13-0.058-0.283-0.069-0.44l-0-0.008c-0.013-0.149-0.021-0.323-0.021-0.498s0.007-0.349 0.022-0.52l-0.002 0.022c0.015-0.169 0.040-0.322 0.074-0.472l-0.004 0.023h3.947v12.487c-0.175 0.036-0.378 0.056-0.596 0.071s-0.421 0.021-0.596 0.021c-0.161 0-0.35-0.007-0.574-0.021-0.228-0.016-0.433-0.041-0.634-0.076l0.038 0.005v-10.594zM46.243 18.29c0.035 1.36 0.386 2.362 1.058 2.993 0.674 0.631 1.67 0.947 2.981 0.947 0.012 0 0.026 0 0.040 0 1.169 0 2.285-0.224 3.308-0.631l-0.060 0.021c0.134 0.245 0.239 0.54 0.316 0.89 0.084 0.351 0.126 0.695 0.147 1.038-0.508 0.219-1.101 0.397-1.718 0.505l-0.049 0.007c-0.638 0.112-1.353 0.168-2.132 0.168-1.136 0-2.11-0.161-2.923-0.476s-1.48-0.764-2.005-1.339c-0.517-0.567-0.915-1.252-1.148-2.009l-0.010-0.038c-0.245-0.786-0.365-1.648-0.365-2.595 0-0.925 0.12-1.788 0.351-2.594 0.229-0.806 0.6-1.506 1.088-2.107l-0.008 0.011c0.494-0.594 1.107-1.070 1.805-1.396l0.032-0.013c0.736-0.35 1.612-0.526 2.616-0.526 0.862 0 1.612 0.148 2.264 0.442 0.646 0.289 1.191 0.697 1.629 1.2l0.005 0.006c0.435 0.512 0.772 1.122 0.996 1.823 0.224 0.708 0.343 1.472 0.343 2.299 0 0.225-0.007 0.471-0.028 0.715-0.013 0.252-0.035 0.471-0.048 0.646h-8.484v0.014zM52.426 16.488c0-0.003 0-0.006 0-0.009 0-0.462-0.067-0.907-0.191-1.329l0.008 0.033c-0.119-0.414-0.301-0.772-0.533-1.080-0.24-0.308-0.539-0.559-0.882-0.737l-0.015-0.007c-0.365-0.188-0.8-0.28-1.304-0.28-0.988 0-1.746 0.301-2.279 0.897-0.526 0.602-0.848 1.437-0.96 2.51h6.155zM57.468 11.453c0.141-0.029 0.316-0.054 0.494-0.069l0.017-0.001c0.156-0.013 0.339-0.020 0.522-0.020s0.366 0.007 0.546 0.022l-0.024-0.002c0.175 0.014 0.344 0.042 0.484 0.071 0.049 0.245 0.099 0.561 0.148 0.96s0.070 0.737 0.070 1.010c0.36-0.57 0.811-1.048 1.338-1.427l0.015-0.010c0.561-0.407 1.276-0.61 2.152-0.61 0.133 0 0.266 0.007 0.399 0.014 0.141 0.007 0.253 0.021 0.351 0.035 0.035 0.148 0.056 0.301 0.071 0.463 0.013 0.146 0.020 0.316 0.020 0.487 0 0.224-0.012 0.444-0.037 0.661l0.002-0.027c-0.022 0.21-0.056 0.414-0.085 0.61-0.116-0.031-0.25-0.049-0.388-0.049-0.004 0-0.008 0-0.012 0h-0.329c-0.435 0-0.856 0.063-1.256 0.182-0.421 0.131-0.782 0.354-1.073 0.646l-0 0c-0.315 0.309-0.568 0.728-0.757 1.269-0.19 0.533-0.28 1.227-0.28 2.069v6.204c-0.176 0.036-0.379 0.056-0.596 0.071-0.177 0.013-0.385 0.020-0.595 0.021h-0.002c-0.003 0-0.006 0-0.009 0-0.427 0-0.847-0.033-1.256-0.097l0.045 0.006v-12.486h0.021zM43.353 4.105h-2.356l1.669-1.669c-0.141-0.192-0.284-0.361-0.437-0.52l0.002 0.002c-0.155-0.159-0.324-0.302-0.506-0.427l-0.011-0.007-1.67 1.669v-2.356c-0.216-0.035-0.442-0.056-0.673-0.056h-0.008c-0.231 0-0.456 0.022-0.673 0.056v2.356l-1.669-1.669c-0.182 0.133-0.358 0.28-0.518 0.435-0.162 0.161-0.302 0.329-0.436 0.519l1.675 1.669h-2.355s-0.056 0.442-0.056 0.673c0 0.232 0.021 0.456 0.056 0.673h2.356l-1.67 1.669c0.259 0.365 0.582 0.687 0.953 0.953l1.669-1.669v2.358c0.216 0.035 0.442 0.056 0.673 0.056h0.007c0.232 0 0.456-0.022 0.674-0.056v-2.358l1.669 1.669c0.182-0.133 0.358-0.28 0.518-0.434 0.162-0.162 0.31-0.329 0.436-0.52l-1.669-1.669h2.356c0.035-0.216 0.056-0.441 0.056-0.673v-0.007c-0.004-0.238-0.027-0.468-0.068-0.692l0.004 0.026zM40.381 4.786c0 0.301-0.056 0.588-0.154 0.855-0.254 0.097-0.548 0.154-0.855 0.154h-0c-0.301 0-0.589-0.056-0.856-0.154-0.097-0.254-0.154-0.548-0.154-0.854v-0.008c0-0.301 0.056-0.589 0.154-0.856 0.266-0.098 0.554-0.154 0.856-0.154s0.589 0.056 0.856 0.154c0.098 0.266 0.154 0.554 0.154 0.863z"></path>
</symbol>
<symbol id="icon-spotify" viewBox="0 0 107 32">
<path fill="#4c4c4d" style="fill: var(--color3, #4c4c4d)" d="M16.293 0.192c-8.764 0-15.868 7.104-15.868 15.869 0.001 8.761 7.105 15.865 15.868 15.865s15.867-7.104 15.867-15.866-7.104-15.868-15.867-15.868zM23.569 23.077c-0.177 0.286-0.488 0.473-0.844 0.473-0.191 0-0.369-0.054-0.521-0.148l0.004 0.002c-3.726-2.275-8.416-2.79-13.938-1.529-0.062 0.014-0.133 0.022-0.206 0.022-0.547 0-0.99-0.443-0.99-0.99 0-0.463 0.318-0.852 0.747-0.96l0.007-0.001c6.045-1.381 11.229-0.787 15.411 1.77 0.286 0.177 0.473 0.488 0.473 0.844 0 0.191-0.054 0.369-0.148 0.521l0.002-0.004zM25.511 18.757c-0.221 0.356-0.611 0.59-1.055 0.59-0.239 0-0.463-0.068-0.652-0.186l0.005 0.003c-4.265-2.622-10.766-3.381-15.811-1.85-0.107 0.034-0.231 0.053-0.359 0.053-0.555 0-1.025-0.365-1.182-0.869l-0.002-0.009c-0.034-0.107-0.053-0.23-0.053-0.358 0-0.555 0.365-1.025 0.869-1.182l0.009-0.002c5.762-1.749 12.927-0.901 17.824 2.108 0.356 0.221 0.59 0.611 0.59 1.055 0 0.239-0.068 0.463-0.186 0.652l0.003-0.005zM25.678 14.258c-5.114-3.038-13.551-3.317-18.433-1.835-0.129 0.041-0.277 0.064-0.431 0.064-0.82 0-1.484-0.665-1.484-1.484 0-0.666 0.439-1.229 1.043-1.417l0.011-0.003c5.605-1.701 14.923-1.373 20.811 2.123 0.438 0.263 0.727 0.736 0.727 1.276 0 0.82-0.664 1.484-1.484 1.484-0.279 0-0.541-0.077-0.764-0.212l0.007 0.004zM43.595 14.841c-2.739-0.654-3.227-1.113-3.227-2.076 0-0.91 0.857-1.523 2.131-1.523 1.236 0 2.46 0.466 3.744 1.423 0.029 0.022 0.066 0.036 0.106 0.036 0.010 0 0.021-0.001 0.030-0.003l-0.001 0c0.049-0.007 0.091-0.034 0.118-0.072l0-0.001 1.339-1.886c0.021-0.029 0.033-0.065 0.033-0.104 0-0.057-0.026-0.107-0.067-0.14l-0-0c-1.53-1.226-3.25-1.823-5.263-1.823-2.958 0-5.025 1.775-5.025 4.316 0 2.723 1.783 3.687 4.864 4.432 2.62 0.604 3.063 1.109 3.063 2.014 0 1.003-0.894 1.626-2.334 1.626-1.6 0-2.906-0.54-4.364-1.803-0.032-0.027-0.074-0.043-0.119-0.043-0.004 0-0.009 0-0.013 0l0.001-0c-0.049 0.004-0.093 0.027-0.122 0.063l-0 0-1.501 1.785c-0.026 0.031-0.042 0.072-0.042 0.116 0 0.053 0.023 0.101 0.059 0.134l0 0c1.697 1.517 3.786 2.316 6.041 2.316 3.186 0 5.246-1.741 5.246-4.437 0.006-2.275-1.356-3.535-4.693-4.347l-0.005-0.002zM55.505 12.139c-1.381 0-2.514 0.544-3.451 1.659v-1.255c0 0 0 0 0 0 0-0.099-0.080-0.179-0.178-0.179h-2.453c-0.099 0.001-0.178 0.081-0.178 0.179 0 0 0 0 0 0v0 13.946c0 0.099 0.080 0.18 0.178 0.18h2.453c0.099-0.001 0.178-0.081 0.178-0.179 0-0 0-0.001 0-0.001v0-4.401c0.937 1.047 2.069 1.562 3.451 1.562 2.567 0 5.167-1.977 5.167-5.755 0.003-3.778-2.596-5.755-5.165-5.755h-0.002zM57.819 17.893c0 1.923-1.184 3.266-2.882 3.266-1.677 0-2.942-1.404-2.942-3.266s1.265-3.266 2.942-3.266c1.669 0 2.882 1.374 2.882 3.266zM67.332 12.139c-3.307 0-5.897 2.545-5.897 5.796 0 3.215 2.573 5.733 5.856 5.733 3.317 0 5.916-2.537 5.916-5.775 0-3.227-2.581-5.755-5.875-5.755zM67.332 21.179c-1.759 0-3.085-1.413-3.085-3.285 0-1.882 1.28-3.247 3.044-3.247 1.771 0 3.104 1.412 3.104 3.287 0 1.881-1.289 3.245-3.063 3.245zM80.267 12.363h-2.699v-2.759c0-0 0-0.001 0-0.001 0-0.099-0.080-0.179-0.179-0.179 0 0 0 0 0 0h-2.453c-0.099 0.001-0.18 0.081-0.18 0.18v2.76h-1.179c-0.099 0.001-0.178 0.081-0.178 0.179 0 0 0 0 0 0v0 2.109c0 0.099 0.080 0.18 0.178 0.18h1.179v5.455c0 2.204 1.098 3.322 3.263 3.322 0.879 0 1.609-0.181 2.297-0.572 0.054-0.031 0.091-0.088 0.091-0.154 0-0.001 0-0.001 0-0.002v0-2.009c-0.001-0.098-0.081-0.178-0.179-0.178-0.029 0-0.057 0.007-0.081 0.019l0.001-0c-0.471 0.237-0.928 0.347-1.44 0.347-0.786 0-1.139-0.357-1.139-1.157v-5.071h2.7c0.099-0.001 0.178-0.081 0.178-0.179 0 0 0 0 0 0v0-2.108c0-0.002 0-0.004 0-0.006 0-0.096-0.078-0.174-0.174-0.174-0.001 0-0.002 0-0.002 0h0l-0.002-0.001zM89.673 12.373v-0.339c0-0.997 0.383-1.441 1.239-1.441 0.512 0 0.923 0.101 1.382 0.255 0.017 0.006 0.036 0.009 0.057 0.009 0.098 0 0.178-0.080 0.178-0.178 0-0.001 0-0.001 0-0.002v0-2.069c0-0.001 0-0.001 0-0.002 0-0.080-0.052-0.147-0.125-0.169l-0.001-0c-0.588-0.186-1.264-0.294-1.965-0.294-0.026 0-0.052 0-0.078 0l0.004-0c-2.263 0-3.463 1.277-3.463 3.689v0.519h-1.179c-0.099 0.001-0.178 0.081-0.179 0.179v2.12c0.001 0.099 0.080 0.179 0.179 0.18h1.179v8.413c0 0.1 0.082 0.18 0.18 0.18h2.451c0.001 0 0.001 0 0.002 0 0.099 0 0.179-0.080 0.179-0.179 0-0 0-0.001 0-0.001v0-8.413h2.29l3.509 8.413c-0.399 0.883-0.79 1.059-1.325 1.059-0.432 0-0.889-0.128-1.353-0.384-0.026-0.014-0.056-0.021-0.089-0.021-0.019 0-0.038 0.003-0.055 0.008l0.001-0c-0.048 0.016-0.086 0.051-0.106 0.095l-0 0.001-0.831 1.825c-0.011 0.022-0.017 0.048-0.017 0.076 0 0.068 0.038 0.127 0.094 0.157l0.001 0c0.867 0.469 1.65 0.671 2.619 0.671 1.811 0 2.814-0.846 3.695-3.115l4.256-10.997c0.008-0.019 0.012-0.041 0.012-0.065 0-0.038-0.012-0.073-0.033-0.102l0 0.001c-0.032-0.047-0.085-0.078-0.145-0.078h-2.555c-0 0-0.001 0-0.001 0-0.078 0-0.144 0.050-0.169 0.119l-0 0.001-2.617 7.471-2.865-7.476c-0.026-0.068-0.091-0.115-0.166-0.115h-4.191zM84.22 12.363h-2.453c0 0 0 0 0 0-0.099 0-0.18 0.080-0.181 0.179v10.702c0 0.1 0.082 0.18 0.181 0.18h2.453c0.1 0 0.18-0.081 0.18-0.18v0-10.7c0 0 0 0 0 0 0-0.099-0.080-0.179-0.179-0.179-0.001 0-0.001 0-0.002 0h0v-0.001zM83.007 7.489c-0.013-0-0.029-0.001-0.044-0.001-0.972 0-1.76 0.788-1.76 1.76s0.788 1.76 1.76 1.76c0.015 0 0.030-0 0.044-0.001l-0.002 0c0.954-0.024 1.718-0.802 1.718-1.759s-0.763-1.735-1.713-1.759l-0.002-0zM104.497 15.804c-0.971 0-1.726-0.78-1.726-1.727 0-0.946 0.765-1.735 1.735-1.735s1.726 0.78 1.726 1.726c0 0.947-0.766 1.737-1.735 1.737zM104.507 12.513c-0.885 0-1.554 0.704-1.554 1.564 0 0.861 0.666 1.554 1.545 1.554 0.885 0 1.553-0.702 1.553-1.564 0-0.86-0.665-1.554-1.543-1.554zM104.89 14.244l0.489 0.684h-0.414l-0.439-0.626h-0.377v0.626h-0.345v-1.811h0.806c0.423 0 0.7 0.214 0.7 0.577 0.002 0.298-0.171 0.48-0.419 0.551h-0.001zM104.597 13.427h-0.449v0.573h0.448c0.224 0 0.359-0.109 0.359-0.286 0-0.187-0.135-0.287-0.358-0.287z"></path>
</symbol>
<symbol id="icon-zoom" viewBox="0 0 66 32">
<path fill="#4c4c4d" style="fill: var(--color3, #4c4c4d)" d="M53.614 13.734c-0.258-0.446-0.628-0.815-1.073-1.072l0.014 0.008c-0.434-0.253-0.94-0.399-1.479-0.399-1.078 0-2.021 0.58-2.54 1.459-0.249 0.434-0.327 0.92-0.358 1.474l-0.036 0.734v5.131l-0.040 0.734c-0.048 1.218-0.935 2.081-2.162 2.162l-0.734 0.037v-14.665c0.734 0 2.012 0.37 2.584 1.007l-0.020 0.013c0.935-0.644 2.068-1.021 3.289-1.021 0.005 0 0.011 0 0.015 0h-0c0 0 0.001 0 0.001 0 1.749 0 3.32 0.767 4.399 1.989l0.005-0.006c1.075-1.213 2.645-1.978 4.393-1.978 3.239 0 5.865 2.625 5.867 5.863v8.798l-0.73-0.037c-1.212-0.069-2.090-0.956-2.166-2.162l-0.037-0.734v-5.134l-0.036-0.73c-0.030-0.539-0.108-1.038-0.358-1.468l-0.008-0.014c-0.508-0.87-1.452-1.454-2.532-1.454-1.076 0-2.017 0.58-2.534 1.459-0.253 0.434-0.334 0.933-0.364 1.477l-0.037 0.734v8.064l-0.73-0.037c-1.208-0.075-2.093-0.962-2.166-2.162l-0.037-0.734v-5.131l-0.036-0.734c-0.026-0.551-0.108-1.040-0.358-1.471zM3.409 23.967l0.734 0.036h10.999l-0.036-0.731c-0.1-1.207-0.953-2.088-2.163-2.165l-0.734-0.038h-6.599l8.798-8.8-0.037-0.731c-0.056-1.218-0.947-2.099-2.163-2.165l-0.734-0.033-10.998-0.005 0.036 0.734c0.097 1.194 0.963 2.093 2.163 2.163l0.734 0.037h6.599l-8.797 8.8 0.036 0.734c0.072 1.209 0.945 2.085 2.163 2.162v0.001zM42.328 11.482c1.328 1.327 2.149 3.16 2.149 5.186s-0.821 3.859-2.149 5.186l-0 0c-1.328 1.326-3.161 2.147-5.186 2.147s-3.859-0.82-5.186-2.147l0 0c-1.327-1.327-2.148-3.161-2.148-5.186 0-4.051 3.284-7.334 7.334-7.334 2.025 0 3.859 0.821 5.186 2.148v0zM40.253 13.56c0.794 0.796 1.285 1.895 1.285 3.109 0 2.429-1.968 4.399-4.397 4.402h-0c-0 0-0 0-0.001 0-1.215 0-2.314-0.492-3.111-1.288l0 0c-0.796-0.796-1.288-1.896-1.288-3.112s0.492-2.315 1.288-3.112l-0 0c0.796-0.796 1.897-1.288 3.112-1.288s2.315 0.492 3.112 1.288l-0-0zM21.747 9.335c2.024 0.001 3.856 0.822 5.182 2.149l0 0c1.328 1.327 2.149 3.16 2.149 5.186 0 4.049-3.283 7.332-7.332 7.332-0.001 0-0.002 0-0.003 0h0c-4-0.065-7.219-3.323-7.219-7.333 0-4.008 3.215-7.265 7.208-7.333l0.006-0h0.009zM24.854 13.558c0.795 0.796 1.286 1.896 1.286 3.11 0 2.43-1.968 4.4-4.398 4.402h-0c-2.429-0.002-4.397-1.97-4.399-4.399v-0c0-1.167 0.463-2.287 1.288-3.112 0.796-0.796 1.896-1.288 3.112-1.288s2.315 0.492 3.112 1.288l-0-0v-0.001z"></path>
</symbol>
<symbol id="icon-amazon" viewBox="0 0 74 32">
<path fill="#4c4c4d" style="fill: var(--color3, #4c4c4d)" d="M45.798 25.205c-4.242 3.127-10.391 4.794-15.685 4.794-7.423 0-14.106-2.745-19.162-7.312-0.397-0.359-0.041-0.848 0.436-0.568 5.456 3.175 12.202 5.084 19.172 5.084 4.699 0 9.87-0.972 14.624-2.99 0.718-0.305 1.319 0.471 0.616 0.991z"></path>
<path fill="#4c4c4d" style="fill: var(--color3, #4c4c4d)" d="M47.562 23.186c0.543 0.696-0.604 3.56-1.115 4.837-0.156 0.388 0.178 0.544 0.527 0.25 2.279-1.903 2.863-5.891 2.399-6.466-0.463-0.572-4.442-1.064-6.867 0.642-0.375 0.261-0.312 0.623 0.105 0.572 1.366-0.163 4.41-0.528 4.951 0.165zM42.708 10.403v-1.659c0-0.251 0.19-0.42 0.419-0.42h7.427c0.005-0 0.010-0 0.015-0 0.229 0 0.414 0.185 0.414 0.414 0 0.002 0 0.004-0 0.006v-0 1.421c-0.004 0.238-0.203 0.549-0.559 1.042l-3.849 5.495c1.431-0.036 2.94 0.178 4.237 0.908 0.292 0.166 0.372 0.407 0.393 0.646v1.769c0 0.242-0.267 0.525-0.546 0.378-2.285-1.198-5.32-1.328-7.847 0.013-0.257 0.139-0.527-0.14-0.527-0.381v-1.682c0-0.27 0.003-0.73 0.273-1.141l4.458-6.393h-3.88c-0.238 0-0.428-0.169-0.428-0.416zM15.617 20.753h-2.26c-0.212-0.011-0.383-0.175-0.404-0.383l-0-0.002v-11.595c0.004-0.231 0.192-0.417 0.423-0.417 0.004 0 0.009 0 0.013 0h2.106c0.219 0.009 0.394 0.179 0.41 0.388v1.515h0.041c0.55-1.464 1.582-2.148 2.974-2.148 1.415 0 2.297 0.683 2.934 2.149 0.546-1.465 1.788-2.149 3.12-2.149 0.947 0 1.983 0.391 2.616 1.268 0.715 0.976 0.568 2.393 0.568 3.636l-0.003 7.319c-0.004 0.233-0.193 0.42-0.426 0.42-0.003 0-0.007-0-0.010-0h-2.256c-0.224-0.012-0.402-0.194-0.407-0.419v-6.146c0-0.489 0.044-1.71-0.064-2.174-0.168-0.778-0.673-0.998-1.328-0.998-0.546 0-1.119 0.365-1.351 0.951s-0.21 1.563-0.21 2.221v6.146c-0.004 0.233-0.193 0.42-0.426 0.42-0.003 0-0.006-0-0.009-0h-2.256c-0.224-0.011-0.403-0.194-0.407-0.419v-0l-0.003-6.146c0-1.293 0.213-3.197-1.392-3.197-1.624 0-1.56 1.856-1.56 3.197v6.146c-0.004 0.233-0.193 0.42-0.426 0.42-0.003 0-0.006-0-0.009-0h0zM57.376 8.111c3.352 0 5.167 2.88 5.167 6.54 0 3.537-2.005 6.344-5.167 6.344-3.292 0-5.084-2.88-5.084-6.468 0-3.609 1.815-6.416 5.084-6.416zM57.395 10.479c-1.665 0-1.769 2.268-1.769 3.683 0 1.417-0.023 4.442 1.751 4.442 1.751 0 1.833-2.44 1.833-3.928 0-0.979-0.041-2.149-0.337-3.076-0.254-0.808-0.76-1.122-1.478-1.122zM66.89 20.753h-2.249c-0.224-0.012-0.402-0.194-0.407-0.419v-0l-0.004-11.599c0.025-0.214 0.206-0.379 0.424-0.379 0.004 0 0.008 0 0.012 0h2.094c0.194 0.007 0.355 0.141 0.403 0.322l0.001 0.003v1.773h0.040c0.632-1.586 1.519-2.343 3.080-2.343 1.014 0 2.002 0.365 2.638 1.367 0.591 0.928 0.591 2.488 0.591 3.61v7.299c-0.034 0.209-0.213 0.366-0.429 0.366-0.003 0-0.005-0-0.008-0h-2.265c-0.205-0.011-0.371-0.165-0.401-0.364l-0-0.002v-6.297c0-1.268 0.147-3.124-1.414-3.124-0.55 0-1.055 0.369-1.306 0.928-0.318 0.709-0.36 1.415-0.36 2.196v6.245c-0.008 0.234-0.2 0.42-0.435 0.42-0.002 0-0.005-0-0.007-0h0zM36.787 15.214c0 0.88 0.023 1.614-0.423 2.395-0.359 0.636-0.931 1.026-1.562 1.026-0.869 0-1.377-0.66-1.377-1.636 0-1.926 1.725-2.276 3.362-2.276v0.489zM39.065 20.72c-0.082 0.070-0.189 0.113-0.306 0.113-0.083 0-0.162-0.022-0.23-0.060l0.002 0.001c-0.75-0.623-0.887-0.912-1.297-1.506-1.239 1.265-2.12 1.642-3.724 1.642-1.903 0-3.381-1.172-3.381-3.52 0-1.834 0.991-3.083 2.409-3.693 1.225-0.54 2.938-0.635 4.248-0.785v-0.292c0-0.537 0.041-1.174-0.276-1.638-0.273-0.416-0.801-0.587-1.269-0.587-0.861 0-1.626 0.442-1.815 1.357-0.038 0.203-0.187 0.403-0.393 0.413l-2.19-0.235c-0.184-0.041-0.391-0.191-0.337-0.473 0.503-2.657 2.905-3.458 5.053-3.458 1.099 0 2.536 0.292 3.403 1.125 1.099 1.026 0.995 2.396 0.995 3.887v3.52c0 1.059 0.439 1.523 0.852 2.095 0.143 0.203 0.175 0.448-0.009 0.6-0.461 0.385-1.28 1.099-1.732 1.5l-0.004-0.007zM7.167 15.214c0 0.88 0.022 1.614-0.424 2.395-0.359 0.636-0.927 1.026-1.562 1.026-0.868 0-1.374-0.66-1.374-1.636 0-1.926 1.726-2.276 3.36-2.276v0.489zM9.445 20.72c-0.082 0.070-0.189 0.113-0.306 0.113-0.083 0-0.162-0.022-0.23-0.060l0.002 0.001c-0.75-0.623-0.883-0.912-1.296-1.506-1.24 1.265-2.117 1.642-3.724 1.642-1.901 0-3.382-1.172-3.382-3.52 0-1.834 0.995-3.083 2.409-3.693 1.226-0.54 2.939-0.635 4.248-0.785v-0.292c0-0.537 0.041-1.174-0.273-1.638-0.278-0.416-0.805-0.587-1.269-0.587-0.861 0-1.63 0.442-1.817 1.357-0.038 0.203-0.188 0.403-0.392 0.413l-2.193-0.235c-0.184-0.041-0.387-0.191-0.336-0.473 0.505-2.658 2.904-3.458 5.051-3.458 1.1 0 2.536 0.292 3.403 1.125 1.1 1.026 0.995 2.396 0.995 3.887v3.52c0 1.059 0.439 1.523 0.852 2.095 0.146 0.203 0.179 0.448-0.007 0.6-0.461 0.384-1.28 1.099-1.732 1.5l-0.006-0.007z"></path>
</symbol>
<symbol id="icon-adobe" viewBox="0 0 89 32">
<path fill="#4c4c4d" style="fill: var(--color3, #4c4c4d)" d="M10.398 4h-9.756v23.334l9.756-23.334zM17.263 4h9.744v23.334l-9.744-23.334zM13.831 12.6l6.21 14.734h-4.075l-1.855-4.691h-4.545l4.265-10.042zM42.925 18.838l1.15 3.299c0.038 0.082 0.095 0.12 0.198 0.12h2.212c0.12 0 0.139-0.056 0.12-0.179l-4.57-12.692c-0.019-0.102-0.038-0.12-0.139-0.12h-2.746c-0.075 0-0.12 0.056-0.12 0.14-0.038 0.667-0.095 0.871-0.179 1.067l-4.073 11.588c-0.019 0.139 0.025 0.197 0.139 0.197h1.976c0.121 0 0.179-0.038 0.223-0.159l1.087-3.26h4.723zM38.831 16.682c0.598-1.805 1.386-4.119 1.704-5.44h0.019c0.395 1.385 1.322 4.132 1.742 5.44h-3.464zM52.48 22.454c1.189 0 2.454-0.216 3.737-0.769 0.102-0.039 0.121-0.083 0.121-0.179-0.045-0.37-0.075-0.809-0.083-1.253l-0-0.012v-11.949c0-0.075 0-0.114-0.095-0.114h-2.155c-0.082 0-0.12 0.038-0.12 0.139v4.049c-0.254-0.034-0.55-0.055-0.849-0.056h-0.002c-3.477 0-5.612 2.294-5.612 5.16 0 3.324 2.193 4.984 5.060 4.984zM53.885 20.242c-0.325 0.101-0.698 0.159-1.085 0.159-0.023 0-0.046-0-0.069-0.001l0.003 0c-1.576 0-2.867-0.889-2.867-3.050 0-1.913 1.328-3.045 3.089-3.045 0.356 0 0.668 0.038 0.928 0.139v5.798zM63.21 12.311c-2.968 0-4.805 2.275-4.805 5.084 0 2.511 1.462 5.060 4.76 5.060 2.791 0 4.748-2.054 4.748-5.124 0-2.707-1.659-5.021-4.704-5.021zM63.090 14.306c1.678 0 2.391 1.443 2.391 3.089 0 2.034-1.049 3.045-2.27 3.045-1.506 0-2.396-1.265-2.396-3.089 0-1.875 0.947-3.045 2.276-3.045zM70.142 8.178c-0.082 0-0.139 0.038-0.139 0.139v13.526c0 0.057 0.056 0.16 0.139 0.179 0.948 0.292 1.939 0.432 2.963 0.432 2.93 0 5.777-1.818 5.777-5.48 0-2.65-1.817-4.665-4.665-4.665-0.010-0-0.021-0-0.032-0-0.631 0-1.238 0.102-1.806 0.291l0.040-0.012-0.026-4.252c0-0.139-0.038-0.158-0.178-0.158h-2.072zM76.448 17.216c0 2.193-1.5 3.223-3.121 3.223-0.337 0-0.635-0.019-0.909-0.102v-5.771c0.312-0.121 0.687-0.223 1.38-0.223 1.563 0 2.65 0.992 2.65 2.873zM86.924 17.929c0.966 0 1.76-0.019 2.034-0.083 0.102-0.019 0.14-0.057 0.159-0.14 0.056-0.216 0.083-0.668 0.083-1.221 0-1.881-1.131-4.176-4.056-4.176-2.987 0-4.647 2.435-4.647 5.18 0 2.435 1.285 4.965 4.882 4.965 1.348 0 2.218-0.216 2.968-0.572 0.075-0.038 0.114-0.102 0.114-0.216v-1.646c0-0.095-0.056-0.114-0.114-0.075-0.75 0.317-1.564 0.476-2.454 0.476-2.014 0-2.93-1.112-2.987-2.492h4.017zM82.907 16.226c0.159-0.967 0.769-2.015 2.136-2.015 1.506 0 1.901 1.264 1.901 1.836v0.16c-0.084 0.019-0.338 0.019-1.088 0.019h-2.948z"></path>
</symbol>
<symbol id="icon-notion" viewBox="0 0 87 32">
<path fill="#4c4c4d" style="fill: var(--color3, #4c4c4d)" d="M30.318 23.183v-9.704h0.173l7.063 9.704h2.223v-14.249h-2.47v9.679h-0.173l-7.063-9.679h-2.223v14.249h2.47zM46.766 23.403c3.26 0 5.26-2.103 5.26-5.622 0-3.496-2-5.622-5.261-5.622-3.235 0-5.259 2.127-5.259 5.622 0.024 3.52 2 5.622 5.26 5.622zM46.766 21.35c-1.729 0-2.716-1.295-2.716-3.568 0-2.249 0.987-3.569 2.716-3.569s2.716 1.32 2.716 3.569c0 2.273-0.988 3.568-2.716 3.568zM54.274 9.74v2.712h-1.729v1.956h1.729v5.89c0 2.103 0.988 2.934 3.507 2.934 0.469 0 0.938-0.049 1.308-0.122v-1.907c-0.296 0.024-0.493 0.049-0.84 0.049-1.037 0-1.506-0.464-1.506-1.54v-5.303h2.345v-1.958h-2.345v-2.711h-2.47zM60.57 23.183h2.471v-10.804h-2.47v10.804zM61.806 10.596c0.817 0 1.479-0.662 1.479-1.479s-0.662-1.479-1.479-1.479v0c-0.817 0-1.479 0.662-1.479 1.479s0.662 1.479 1.479 1.479v0zM69.808 23.403c3.259 0 5.259-2.103 5.259-5.622 0-3.496-2-5.622-5.259-5.622-3.236 0-5.261 2.127-5.261 5.622 0 3.52 1.976 5.622 5.261 5.622zM69.808 21.35c-1.729 0-2.717-1.295-2.717-3.568 0-2.249 0.988-3.569 2.716-3.569 1.704 0 2.717 1.32 2.717 3.569-0.024 2.273-1.013 3.568-2.716 3.568zM76.525 23.183h2.47v-6.281c0-1.589 0.938-2.591 2.395-2.591 1.506 0 2.198 0.831 2.198 2.469v6.404h2.47v-6.99c0-2.591-1.334-4.033-3.753-4.033-1.63 0-2.717 0.733-3.236 1.955h-0.172v-1.736h-2.397c0.025 0 0.025 10.804 0.025 10.804z"></path>
<path fill="#4c4c4d" style="fill: var(--color3, #4c4c4d)" d="M4.169 8.022c0.719 0.58 0.979 0.534 2.325 0.442l12.678-0.762c0.276 0 0.046-0.276-0.046-0.306l-2.109-1.511c-0.397-0.305-0.948-0.672-1.973-0.58l-12.265 0.9c-0.443 0.046-0.536 0.275-0.352 0.442l1.744 1.374zM4.934 10.967v13.306c0 0.717 0.352 0.977 1.162 0.931l13.932-0.809c0.81-0.045 0.903-0.534 0.903-1.113v-13.214c0-0.581-0.23-0.901-0.719-0.856l-14.559 0.855c-0.536 0.046-0.719 0.32-0.719 0.901zM18.682 11.684c0.092 0.396 0 0.809-0.397 0.855l-0.673 0.137v9.827c-0.582 0.306-1.116 0.488-1.576 0.488-0.719 0-0.903-0.229-1.437-0.901l-4.39-6.882v6.654l1.392 0.304s0 0.809-1.116 0.809l-3.090 0.183c-0.091-0.183 0-0.625 0.306-0.717l0.811-0.229v-8.79l-1.117-0.091c-0.091-0.397 0.138-0.977 0.765-1.022l3.319-0.23 4.572 6.959v-6.15l-1.162-0.137c-0.091-0.488 0.276-0.855 0.719-0.901l3.074-0.168zM1.752 4.984l12.771-0.931c1.56-0.137 1.973-0.045 2.952 0.672l4.068 2.854c0.673 0.488 0.903 0.625 0.903 1.16v15.671c0 0.978-0.352 1.558-1.607 1.649l-14.819 0.9c-0.948 0.047-1.392-0.091-1.881-0.717l-3.012-3.891c-0.536-0.717-0.765-1.252-0.765-1.877v-13.932c0-0.809 0.367-1.464 1.391-1.557z"></path>
</symbol>
<symbol id="icon-netflix" viewBox="0 0 74 32">
<path fill="#4c4c4d" style="fill: var(--color3, #4c4c4d)" d="M10.218 25.376c-1.113 0.195-2.247 0.254-3.418 0.41l-3.575-10.469v10.918c-1.112 0.118-2.128 0.273-3.183 0.429v-20h2.968l4.063 11.35v-11.349h3.144v18.711zM16.371 13.99c1.21 0 3.066-0.059 4.179-0.059v3.125c-1.386 0-3.007 0-4.179 0.059v4.648c1.835-0.118 3.672-0.273 5.527-0.332v3.007l-8.652 0.684v-18.456h8.652v3.125h-5.527v4.2zM33.519 9.79h-3.242v14.375c-1.054 0-2.109 0-3.125 0.040v-14.414h-3.242v-3.125h9.609v3.125zM38.597 13.774h4.278v3.125h-4.278v7.091h-3.066v-17.324h8.73v3.125h-5.663v3.984zM49.339 21.255c1.777 0.040 3.574 0.176 5.312 0.273v3.087c-2.792-0.176-5.586-0.352-8.437-0.41v-17.539h3.125v14.589zM57.288 24.829c0.996 0.058 2.051 0.118 3.066 0.234v-18.398h-3.066v18.163zM74.046 6.664l-3.965 9.512 3.965 10.488c-1.172-0.155-2.344-0.371-3.515-0.566l-2.247-5.782-2.285 5.313c-1.132-0.196-2.226-0.254-3.359-0.41l4.024-9.16-3.633-9.394h3.36l2.050 5.254 2.188-5.254h3.417z"></path>
</symbol>
<symbol id="icon-play" viewBox="0 0 32 32">
<path d="M10.080 4.545c-1.599-1.008-3.68 0.14-3.68 2.029v18.851c0 1.889 2.081 3.037 3.68 2.029l14.95-9.424c1.493-0.942 1.493-3.119 0-4.061l-14.95-9.424z"></path>
</symbol>
<symbol id="icon-arrow-up" viewBox="0 0 32 32">
<path fill="#ff9500" style="fill: var(--color1, #ff9500)" d="M8.351 23.649c0.217 0.217 0.517 0.352 0.849 0.352s0.632-0.134 0.849-0.352v0l11.551-11.552v9.103c0 0.663 0.537 1.2 1.2 1.2s1.2-0.537 1.2-1.2v-12c0-0.663-0.536-1.2-1.2-1.2h-12c-0.663 0-1.2 0.537-1.2 1.2s0.537 1.2 1.2 1.2h9.103l-11.552 11.551c-0.217 0.217-0.352 0.517-0.352 0.849s0.134 0.632 0.352 0.849v0z"></path>
</symbol>
<symbol id="icon-tick" viewBox="0 0 32 32">
<path d="M26.726 6.645c0.29 0.221 0.474 0.567 0.474 0.956 0 0.275-0.092 0.528-0.248 0.73l0.002-0.003-12.8 16.8c-0.221 0.288-0.566 0.472-0.954 0.472-0.332 0-0.632-0.135-0.849-0.352v0l-7.2-7.2c-0.2-0.214-0.322-0.502-0.322-0.818 0-0.663 0.537-1.2 1.2-1.2 0.316 0 0.604 0.123 0.819 0.323l-0.001-0.001 6.23 6.229 11.968-15.707c0.221-0.289 0.567-0.473 0.955-0.473 0.274 0 0.526 0.092 0.728 0.246l-0.003-0.002z"></path>
</symbol>
<symbol id="icon-cross" viewBox="0 0 32 32">
<path d="M10.048 8.352c-0.214-0.2-0.502-0.322-0.818-0.322-0.663 0-1.2 0.537-1.2 1.2 0 0.316 0.123 0.604 0.323 0.819l-0.001-0.001 5.952 5.952-5.952 5.952c-0.235 0.22-0.382 0.532-0.382 0.878 0 0.663 0.537 1.2 1.2 1.2 0.346 0 0.658-0.147 0.877-0.381l0.001-0.001 5.952-5.952 5.952 5.952c0.22 0.235 0.532 0.382 0.878 0.382 0.663 0 1.2-0.537 1.2-1.2 0-0.346-0.147-0.658-0.381-0.877l-0.001-0.001-5.952-5.952 5.952-5.952c0.2-0.214 0.322-0.502 0.322-0.818 0-0.663-0.537-1.2-1.2-1.2-0.316 0-0.604 0.123-0.819 0.323l0.001-0.001-5.952 5.952-5.952-5.952z"></path>
</symbol>
<symbol id="icon-plus" viewBox="0 0 31 32">
<path d="M23.133 17.332h-13.948c-0.281-0.003-0.533-0.129-0.704-0.326l-0.001-0.001c-0.181-0.208-0.291-0.482-0.291-0.781 0-0.003 0-0.007 0-0.010v0.001c0-0.297 0.104-0.582 0.291-0.792 0.172-0.199 0.423-0.325 0.704-0.328h13.948c0.264 0 0.518 0.118 0.705 0.328 0.186 0.21 0.291 0.494 0.291 0.792 0 0.296-0.104 0.581-0.291 0.791-0.172 0.199-0.423 0.325-0.704 0.328h-0.001z"></path>
<path d="M17.213 8.942l-0.153 13.948c-0.007 0.281-0.135 0.531-0.334 0.7l-0.001 0.001c-0.206 0.176-0.476 0.283-0.771 0.283-0.008 0-0.017-0-0.025-0l0.001 0c-0.303-0.001-0.58-0.114-0.79-0.301l0.001 0.001c-0.197-0.174-0.32-0.427-0.32-0.708 0 0 0 0 0 0v0l0.154-13.948c0.003-0.264 0.124-0.516 0.335-0.701 0.212-0.184 0.498-0.286 0.795-0.283 0.296 0.003 0.58 0.111 0.789 0.3 0.206 0.19 0.322 0.444 0.32 0.708z"></path>
</symbol>
<symbol id="icon-email" viewBox="0 0 41 32">
<path d="M0.941 9.732v16.151c0 3.119 2.528 5.647 5.647 5.647v0h28.235c3.119 0 5.647-2.528 5.647-5.647v0-16.151l-16.806 10.34c-0.842 0.526-1.864 0.837-2.959 0.837s-2.117-0.312-2.983-0.851l0.024 0.014-16.806-10.34z"></path>
<path d="M40.471 6.415v-0.297c0-3.119-2.528-5.647-5.647-5.647v0h-28.235c-3.119 0-5.647 2.528-5.647 5.647v0 0.297l18.285 11.253c0.421 0.263 0.932 0.419 1.48 0.419s1.059-0.156 1.491-0.426l-0.012 0.007 18.285-11.253z"></path>
</symbol>
<symbol id="icon-facebook" viewBox="0 0 32 32">
<path d="M32 16c0-8.836-7.164-16-16-16s-16 7.164-16 16c0 7.987 5.851 14.605 13.5 15.805v-11.179h-4.063v-4.627h4.063v-3.525c0-4.009 2.389-6.224 6.044-6.224 1.749 0 3.581 0.312 3.581 0.312v3.937h-2.019c-1.988 0-2.608 1.233-2.608 2.5v3h4.437l-0.709 4.625h-3.728v11.18c7.651-1.2 13.501-7.819 13.501-15.805z"></path>
</symbol>
<symbol id="icon-twitter" viewBox="0 0 38 32">
<path d="M12.080 31.6c14.488 0 22.413-12.006 22.413-22.413 0-0.338-0.006-0.683-0.022-1.021 1.548-1.128 2.852-2.479 3.894-4.022l0.036-0.057c-1.437 0.64-2.96 1.056-4.522 1.237 1.627-0.987 2.851-2.5 3.448-4.299l0.016-0.056c-1.44 0.868-3.115 1.531-4.9 1.893l-0.102 0.017c-1.442-1.531-3.483-2.484-5.746-2.484-4.356 0-7.888 3.532-7.888 7.888 0 0.631 0.074 1.245 0.214 1.833l-0.011-0.054c-6.56-0.339-12.331-3.454-16.202-8.184l-0.032-0.040c-0.669 1.134-1.064 2.499-1.064 3.957 0 2.721 1.377 5.12 3.473 6.538l0.028 0.018c-1.316-0.043-2.539-0.402-3.608-1.003l0.040 0.020v0.096c0 0.002 0 0.004 0 0.006 0 3.799 2.69 6.97 6.269 7.711l0.051 0.009c-0.619 0.176-1.33 0.277-2.065 0.277-0.527 0-1.041-0.052-1.539-0.151l0.050 0.008c1.037 3.154 3.924 5.404 7.347 5.475l0.008 0c-2.659 2.104-6.061 3.375-9.76 3.375-0.672 0-1.335-0.042-1.985-0.123l0.078 0.008c3.412 2.219 7.587 3.539 12.070 3.539 0.004 0 0.007 0 0.011 0h-0.001z"></path>
</symbol>
<symbol id="icon-linkedin" viewBox="0 0 32 32">
<path d="M29.631 0h-27.268c-1.307 0-2.363 1.031-2.363 2.307v27.381c0 1.275 1.056 2.312 2.363 2.312h27.268c1.307 0 2.369-1.037 2.369-2.307v-27.387c0-1.276-1.063-2.307-2.369-2.307zM9.493 27.269h-4.749v-15.276h4.749v15.276zM7.12 9.912c-0.031 0.001-0.068 0.002-0.105 0.002-1.52 0-2.752-1.232-2.752-2.752s1.232-2.752 2.752-2.752c0.037 0 0.074 0.001 0.11 0.002l-0.005-0c1.493 0.034 2.69 1.252 2.69 2.75s-1.197 2.716-2.687 2.75l-0.003 0zM27.269 27.269h-4.744v-7.427c0-1.768-0.032-4.049-2.469-4.049-2.468 0-2.844 1.932-2.844 3.925v7.551h-4.737v-15.276h4.551v2.088h0.063c0.631-1.2 2.181-2.469 4.487-2.469 4.807 0 5.693 3.163 5.693 7.276v8.381z"></path>
</symbol>
</defs>
</svg>
